<mxfile host="Electron" agent="Mozilla/5.0 (Windows NT 10.0; Win64; x64) AppleWebKit/537.36 (KHTML, like Gecko) draw.io/24.7.17 Chrome/128.0.6613.36 Electron/32.0.1 Safari/537.36" version="24.7.17">
  <diagram name="Page-1" id="3V5w19cpeurg4VYvPwU5">
    <mxGraphModel dx="2074" dy="1214" grid="1" gridSize="10" guides="1" tooltips="1" connect="1" arrows="1" fold="1" page="1" pageScale="1" pageWidth="850" pageHeight="1100" math="0" shadow="0">
      <root>
        <mxCell id="0" />
        <mxCell id="1" parent="0" />
        <mxCell id="UU7bJiNKzi5CeXvKF5vh-1" value="Main window:&lt;div&gt;Window&lt;/div&gt;" style="swimlane;fontStyle=1;align=center;verticalAlign=top;childLayout=stackLayout;horizontal=1;startSize=40;horizontalStack=0;resizeParent=1;resizeParentMax=0;resizeLast=0;collapsible=1;marginBottom=0;whiteSpace=wrap;html=1;" parent="1" vertex="1">
          <mxGeometry x="370" y="50" width="180" height="60" as="geometry" />
        </mxCell>
        <mxCell id="UU7bJiNKzi5CeXvKF5vh-5" value="Main scene:&lt;div&gt;Scene&lt;/div&gt;" style="swimlane;fontStyle=1;align=center;verticalAlign=top;childLayout=stackLayout;horizontal=1;startSize=40;horizontalStack=0;resizeParent=1;resizeParentMax=0;resizeLast=0;collapsible=1;marginBottom=0;whiteSpace=wrap;html=1;" parent="1" vertex="1">
          <mxGeometry x="370" y="150" width="180" height="60" as="geometry" />
        </mxCell>
        <mxCell id="UU7bJiNKzi5CeXvKF5vh-10" value="" style="endArrow=diamondThin;endFill=1;endSize=24;html=1;rounded=0;" parent="1" source="UU7bJiNKzi5CeXvKF5vh-5" target="UU7bJiNKzi5CeXvKF5vh-1" edge="1">
          <mxGeometry width="160" relative="1" as="geometry">
            <mxPoint x="290" y="230" as="sourcePoint" />
            <mxPoint x="450" y="230" as="targetPoint" />
          </mxGeometry>
        </mxCell>
        <mxCell id="UU7bJiNKzi5CeXvKF5vh-11" value="Canvas:&lt;div&gt;&amp;lt;API&amp;gt;Canvas&lt;/div&gt;" style="swimlane;fontStyle=1;align=center;verticalAlign=top;childLayout=stackLayout;horizontal=1;startSize=40;horizontalStack=0;resizeParent=1;resizeParentMax=0;resizeLast=0;collapsible=1;marginBottom=0;whiteSpace=wrap;html=1;" parent="1" vertex="1">
          <mxGeometry x="380" y="1010" width="160" height="60" as="geometry" />
        </mxCell>
        <mxCell id="UU7bJiNKzi5CeXvKF5vh-15" value="" style="endArrow=diamondThin;endFill=1;endSize=24;html=1;rounded=0;" parent="1" source="UU7bJiNKzi5CeXvKF5vh-11" target="UU7bJiNKzi5CeXvKF5vh-5" edge="1">
          <mxGeometry width="160" relative="1" as="geometry">
            <mxPoint x="390" y="400" as="sourcePoint" />
            <mxPoint x="200" y="340" as="targetPoint" />
          </mxGeometry>
        </mxCell>
        <mxCell id="UU7bJiNKzi5CeXvKF5vh-16" value="Top level panel:&lt;div&gt;StackPanel&amp;lt;Right&amp;gt;&lt;/div&gt;" style="swimlane;fontStyle=1;align=center;verticalAlign=top;childLayout=stackLayout;horizontal=1;startSize=40;horizontalStack=0;resizeParent=1;resizeParentMax=0;resizeLast=0;collapsible=1;marginBottom=0;whiteSpace=wrap;html=1;" parent="1" vertex="1">
          <mxGeometry x="840" y="250" width="180" height="58" as="geometry" />
        </mxCell>
        <mxCell id="UU7bJiNKzi5CeXvKF5vh-20" value="" style="endArrow=diamondThin;endFill=1;endSize=24;html=1;rounded=0;" parent="1" source="UU7bJiNKzi5CeXvKF5vh-16" edge="1">
          <mxGeometry width="160" relative="1" as="geometry">
            <mxPoint x="390" y="400" as="sourcePoint" />
            <mxPoint x="550" y="201.21428571428578" as="targetPoint" />
          </mxGeometry>
        </mxCell>
        <mxCell id="UU7bJiNKzi5CeXvKF5vh-21" value="A1 checkbox:&lt;div&gt;StateControl&amp;lt;int, &amp;lt;API&amp;gt;Glyph&amp;gt;&lt;/div&gt;" style="swimlane;fontStyle=1;align=center;verticalAlign=top;childLayout=stackLayout;horizontal=1;startSize=40;horizontalStack=0;resizeParent=1;resizeParentMax=0;resizeLast=0;collapsible=1;marginBottom=0;whiteSpace=wrap;html=1;" parent="1" vertex="1">
          <mxGeometry x="820" y="350" width="220" height="60" as="geometry" />
        </mxCell>
        <mxCell id="UU7bJiNKzi5CeXvKF5vh-22" value="System fader gain:&lt;div&gt;StateControl&amp;lt;int, &amp;lt;API&amp;gt;Glyph&amp;gt;&lt;/div&gt;" style="swimlane;fontStyle=1;align=center;verticalAlign=top;childLayout=stackLayout;horizontal=1;startSize=40;horizontalStack=0;resizeParent=1;resizeParentMax=0;resizeLast=0;collapsible=1;marginBottom=0;whiteSpace=wrap;html=1;" parent="1" vertex="1">
          <mxGeometry x="1540" y="350" width="220" height="60" as="geometry" />
        </mxCell>
        <mxCell id="UU7bJiNKzi5CeXvKF5vh-23" value="" style="endArrow=diamondThin;endFill=1;endSize=24;html=1;rounded=0;" parent="1" source="UU7bJiNKzi5CeXvKF5vh-21" target="UU7bJiNKzi5CeXvKF5vh-16" edge="1">
          <mxGeometry width="160" relative="1" as="geometry">
            <mxPoint x="440" y="400" as="sourcePoint" />
            <mxPoint x="600" y="400" as="targetPoint" />
          </mxGeometry>
        </mxCell>
        <mxCell id="UU7bJiNKzi5CeXvKF5vh-24" value="" style="endArrow=diamondThin;endFill=1;endSize=24;html=1;rounded=0;" parent="1" source="UU7bJiNKzi5CeXvKF5vh-22" target="UU7bJiNKzi5CeXvKF5vh-16" edge="1">
          <mxGeometry width="160" relative="1" as="geometry">
            <mxPoint x="391" y="570" as="sourcePoint" />
            <mxPoint x="534" y="470" as="targetPoint" />
          </mxGeometry>
        </mxCell>
        <mxCell id="UU7bJiNKzi5CeXvKF5vh-29" value="Carousel interactivity policy:&lt;div&gt;PreconfiguredInteractivityPolicy&lt;/div&gt;&lt;div&gt;&amp;lt;&lt;span style=&quot;background-color: initial;&quot;&gt;StateControl&amp;lt;int, &amp;lt;API&amp;gt;Glyph&amp;gt;&lt;/span&gt;&lt;span style=&quot;background-color: initial;&quot;&gt;&amp;gt;&lt;/span&gt;&lt;/div&gt;" style="swimlane;fontStyle=1;align=center;verticalAlign=top;childLayout=stackLayout;horizontal=1;startSize=60;horizontalStack=0;resizeParent=1;resizeParentMax=0;resizeLast=0;collapsible=1;marginBottom=0;whiteSpace=wrap;html=1;" parent="1" vertex="1">
          <mxGeometry x="590" y="660" width="300" height="234" as="geometry" />
        </mxCell>
        <mxCell id="UU7bJiNKzi5CeXvKF5vh-30" value="- onMouseLDown:&lt;div&gt;{&lt;/div&gt;&lt;div&gt;&amp;nbsp; control.SetNext()&lt;/div&gt;&lt;div&gt;}&lt;/div&gt;" style="text;strokeColor=none;fillColor=none;align=left;verticalAlign=top;spacingLeft=4;spacingRight=4;overflow=hidden;rotatable=0;points=[[0,0.5],[1,0.5]];portConstraint=eastwest;whiteSpace=wrap;html=1;" parent="UU7bJiNKzi5CeXvKF5vh-29" vertex="1">
          <mxGeometry y="60" width="300" height="70" as="geometry" />
        </mxCell>
        <mxCell id="UU7bJiNKzi5CeXvKF5vh-31" value="- onMouseRDown: null" style="text;strokeColor=none;fillColor=none;align=left;verticalAlign=top;spacingLeft=4;spacingRight=4;overflow=hidden;rotatable=0;points=[[0,0.5],[1,0.5]];portConstraint=eastwest;whiteSpace=wrap;html=1;" parent="UU7bJiNKzi5CeXvKF5vh-29" vertex="1">
          <mxGeometry y="130" width="300" height="26" as="geometry" />
        </mxCell>
        <mxCell id="UU7bJiNKzi5CeXvKF5vh-32" value="- onMouseWheel: null" style="text;strokeColor=none;fillColor=none;align=left;verticalAlign=top;spacingLeft=4;spacingRight=4;overflow=hidden;rotatable=0;points=[[0,0.5],[1,0.5]];portConstraint=eastwest;whiteSpace=wrap;html=1;" parent="UU7bJiNKzi5CeXvKF5vh-29" vertex="1">
          <mxGeometry y="156" width="300" height="26" as="geometry" />
        </mxCell>
        <mxCell id="UU7bJiNKzi5CeXvKF5vh-33" value="- onMouseMove: null" style="text;strokeColor=none;fillColor=none;align=left;verticalAlign=top;spacingLeft=4;spacingRight=4;overflow=hidden;rotatable=0;points=[[0,0.5],[1,0.5]];portConstraint=eastwest;whiteSpace=wrap;html=1;" parent="UU7bJiNKzi5CeXvKF5vh-29" vertex="1">
          <mxGeometry y="182" width="300" height="26" as="geometry" />
        </mxCell>
        <mxCell id="UU7bJiNKzi5CeXvKF5vh-34" value="- onMouseLUp: null" style="text;strokeColor=none;fillColor=none;align=left;verticalAlign=top;spacingLeft=4;spacingRight=4;overflow=hidden;rotatable=0;points=[[0,0.5],[1,0.5]];portConstraint=eastwest;whiteSpace=wrap;html=1;" parent="UU7bJiNKzi5CeXvKF5vh-29" vertex="1">
          <mxGeometry y="208" width="300" height="26" as="geometry" />
        </mxCell>
        <mxCell id="UU7bJiNKzi5CeXvKF5vh-44" style="edgeStyle=orthogonalEdgeStyle;rounded=0;orthogonalLoop=1;jettySize=auto;html=1;exitX=0.5;exitY=0;exitDx=0;exitDy=0;endArrow=none;endFill=0;" parent="1" source="UU7bJiNKzi5CeXvKF5vh-35" edge="1">
          <mxGeometry relative="1" as="geometry">
            <Array as="points">
              <mxPoint x="2180" y="180" />
            </Array>
            <mxPoint x="550" y="180" as="targetPoint" />
          </mxGeometry>
        </mxCell>
        <mxCell id="UU7bJiNKzi5CeXvKF5vh-35" value="Slider interactivity policy:&lt;div&gt;PreconfiguredInteractivityPolicy&lt;/div&gt;&lt;div&gt;&amp;lt;&lt;span style=&quot;background-color: initial;&quot;&gt;StateControl&amp;lt;bool, &amp;lt;API&amp;gt;Glyph&amp;gt;&lt;/span&gt;&lt;span style=&quot;background-color: initial;&quot;&gt;&amp;gt;&lt;/span&gt;&lt;/div&gt;" style="swimlane;fontStyle=1;align=center;verticalAlign=top;childLayout=stackLayout;horizontal=1;startSize=60;horizontalStack=0;resizeParent=1;resizeParentMax=0;resizeLast=0;collapsible=1;marginBottom=0;whiteSpace=wrap;html=1;" parent="1" vertex="1">
          <mxGeometry x="2030" y="450" width="330" height="360" as="geometry" />
        </mxCell>
        <mxCell id="UU7bJiNKzi5CeXvKF5vh-36" value="- onMouseLDown:&lt;div&gt;{&lt;/div&gt;&lt;div&gt;&amp;nbsp; mouseTracker.EnableMouseTrack(&lt;span style=&quot;background-color: initial;&quot;&gt;control)&lt;/span&gt;&lt;/div&gt;&lt;div&gt;}&lt;/div&gt;" style="text;strokeColor=none;fillColor=none;align=left;verticalAlign=top;spacingLeft=4;spacingRight=4;overflow=hidden;rotatable=0;points=[[0,0.5],[1,0.5]];portConstraint=eastwest;whiteSpace=wrap;html=1;" parent="UU7bJiNKzi5CeXvKF5vh-35" vertex="1">
          <mxGeometry y="60" width="330" height="70" as="geometry" />
        </mxCell>
        <mxCell id="UU7bJiNKzi5CeXvKF5vh-37" value="- onMouseRDown: null" style="text;strokeColor=none;fillColor=none;align=left;verticalAlign=top;spacingLeft=4;spacingRight=4;overflow=hidden;rotatable=0;points=[[0,0.5],[1,0.5]];portConstraint=eastwest;whiteSpace=wrap;html=1;" parent="UU7bJiNKzi5CeXvKF5vh-35" vertex="1">
          <mxGeometry y="130" width="330" height="26" as="geometry" />
        </mxCell>
        <mxCell id="UU7bJiNKzi5CeXvKF5vh-38" value="- onMouseWheel:&lt;div&gt;{&lt;/div&gt;&lt;div&gt;&amp;nbsp; control.SetState(control.get_State() + delta, true&lt;span style=&quot;background-color: initial;&quot;&gt;)&lt;/span&gt;&lt;/div&gt;&lt;div&gt;}&lt;/div&gt;" style="text;strokeColor=none;fillColor=none;align=left;verticalAlign=top;spacingLeft=4;spacingRight=4;overflow=hidden;rotatable=0;points=[[0,0.5],[1,0.5]];portConstraint=eastwest;whiteSpace=wrap;html=1;" parent="UU7bJiNKzi5CeXvKF5vh-35" vertex="1">
          <mxGeometry y="156" width="330" height="64" as="geometry" />
        </mxCell>
        <mxCell id="UU7bJiNKzi5CeXvKF5vh-39" value="- onMouseMove:&lt;div&gt;&lt;div&gt;{&lt;/div&gt;&lt;div&gt;&amp;nbsp; control.SetState(&lt;span style=&quot;background-color: initial;&quot;&gt;control.get_Position().X - position.X, true)&lt;/span&gt;&lt;/div&gt;&lt;div&gt;}&lt;/div&gt;&lt;/div&gt;" style="text;strokeColor=none;fillColor=none;align=left;verticalAlign=top;spacingLeft=4;spacingRight=4;overflow=hidden;rotatable=0;points=[[0,0.5],[1,0.5]];portConstraint=eastwest;whiteSpace=wrap;html=1;" parent="UU7bJiNKzi5CeXvKF5vh-35" vertex="1">
          <mxGeometry y="220" width="330" height="70" as="geometry" />
        </mxCell>
        <mxCell id="UU7bJiNKzi5CeXvKF5vh-40" value="- onMouseLUp:&lt;div&gt;{&lt;/div&gt;&lt;div&gt;&lt;div&gt;&amp;nbsp; mouseTracker.DisableMouseTrack(control&lt;span style=&quot;background-color: initial;&quot;&gt;)&lt;/span&gt;&lt;/div&gt;&lt;/div&gt;&lt;div&gt;}&lt;/div&gt;" style="text;strokeColor=none;fillColor=none;align=left;verticalAlign=top;spacingLeft=4;spacingRight=4;overflow=hidden;rotatable=0;points=[[0,0.5],[1,0.5]];portConstraint=eastwest;whiteSpace=wrap;html=1;" parent="UU7bJiNKzi5CeXvKF5vh-35" vertex="1">
          <mxGeometry y="290" width="330" height="70" as="geometry" />
        </mxCell>
        <mxCell id="UU7bJiNKzi5CeXvKF5vh-45" value="Checkbox state change policy:&lt;div&gt;CircularStateChangePolicy&lt;/div&gt;" style="swimlane;fontStyle=1;align=center;verticalAlign=top;childLayout=stackLayout;horizontal=1;startSize=40;horizontalStack=0;resizeParent=1;resizeParentMax=0;resizeLast=0;collapsible=1;marginBottom=0;whiteSpace=wrap;html=1;" parent="1" vertex="1">
          <mxGeometry x="1060" y="450" width="220" height="66" as="geometry" />
        </mxCell>
        <mxCell id="UU7bJiNKzi5CeXvKF5vh-46" value="- count: 2" style="text;strokeColor=none;fillColor=none;align=left;verticalAlign=top;spacingLeft=4;spacingRight=4;overflow=hidden;rotatable=0;points=[[0,0.5],[1,0.5]];portConstraint=eastwest;whiteSpace=wrap;html=1;" parent="UU7bJiNKzi5CeXvKF5vh-45" vertex="1">
          <mxGeometry y="40" width="220" height="26" as="geometry" />
        </mxCell>
        <mxCell id="UU7bJiNKzi5CeXvKF5vh-50" value="Slider state change policy:&lt;div&gt;RangeStateChangePolicy&lt;/div&gt;" style="swimlane;fontStyle=1;align=center;verticalAlign=top;childLayout=stackLayout;horizontal=1;startSize=40;horizontalStack=0;resizeParent=1;resizeParentMax=0;resizeLast=0;collapsible=1;marginBottom=0;whiteSpace=wrap;html=1;" parent="1" vertex="1">
          <mxGeometry x="1310" y="450" width="220" height="92" as="geometry" />
        </mxCell>
        <mxCell id="UU7bJiNKzi5CeXvKF5vh-51" value="- from: -600" style="text;strokeColor=none;fillColor=none;align=left;verticalAlign=top;spacingLeft=4;spacingRight=4;overflow=hidden;rotatable=0;points=[[0,0.5],[1,0.5]];portConstraint=eastwest;whiteSpace=wrap;html=1;" parent="UU7bJiNKzi5CeXvKF5vh-50" vertex="1">
          <mxGeometry y="40" width="220" height="26" as="geometry" />
        </mxCell>
        <mxCell id="UU7bJiNKzi5CeXvKF5vh-52" value="- to: 120" style="text;strokeColor=none;fillColor=none;align=left;verticalAlign=top;spacingLeft=4;spacingRight=4;overflow=hidden;rotatable=0;points=[[0,0.5],[1,0.5]];portConstraint=eastwest;whiteSpace=wrap;html=1;" parent="UU7bJiNKzi5CeXvKF5vh-50" vertex="1">
          <mxGeometry y="66" width="220" height="26" as="geometry" />
        </mxCell>
        <mxCell id="UU7bJiNKzi5CeXvKF5vh-53" value="" style="endArrow=diamondThin;endFill=0;endSize=24;html=1;rounded=0;" parent="1" source="UU7bJiNKzi5CeXvKF5vh-29" target="UU7bJiNKzi5CeXvKF5vh-21" edge="1">
          <mxGeometry width="160" relative="1" as="geometry">
            <mxPoint x="490" y="620" as="sourcePoint" />
            <mxPoint x="650" y="620" as="targetPoint" />
          </mxGeometry>
        </mxCell>
        <mxCell id="UU7bJiNKzi5CeXvKF5vh-54" value="" style="endArrow=diamondThin;endFill=0;endSize=24;html=1;rounded=0;" parent="1" source="UU7bJiNKzi5CeXvKF5vh-45" target="UU7bJiNKzi5CeXvKF5vh-21" edge="1">
          <mxGeometry width="160" relative="1" as="geometry">
            <mxPoint x="490" y="620" as="sourcePoint" />
            <mxPoint x="650" y="620" as="targetPoint" />
          </mxGeometry>
        </mxCell>
        <mxCell id="UU7bJiNKzi5CeXvKF5vh-55" value="" style="endArrow=diamondThin;endFill=0;endSize=24;html=1;rounded=0;" parent="1" source="UU7bJiNKzi5CeXvKF5vh-50" target="UU7bJiNKzi5CeXvKF5vh-22" edge="1">
          <mxGeometry width="160" relative="1" as="geometry">
            <mxPoint x="700" y="620" as="sourcePoint" />
            <mxPoint x="860" y="620" as="targetPoint" />
          </mxGeometry>
        </mxCell>
        <mxCell id="UU7bJiNKzi5CeXvKF5vh-56" value="" style="endArrow=diamondThin;endFill=0;endSize=24;html=1;rounded=0;" parent="1" source="UU7bJiNKzi5CeXvKF5vh-35" target="UU7bJiNKzi5CeXvKF5vh-22" edge="1">
          <mxGeometry width="160" relative="1" as="geometry">
            <mxPoint x="700" y="620" as="sourcePoint" />
            <mxPoint x="860" y="620" as="targetPoint" />
          </mxGeometry>
        </mxCell>
        <mxCell id="UU7bJiNKzi5CeXvKF5vh-57" value="Carousel frame glyph:&lt;div&gt;&amp;lt;API&amp;gt;Glyph&lt;/div&gt;" style="swimlane;fontStyle=1;align=center;verticalAlign=top;childLayout=stackLayout;horizontal=1;startSize=40;horizontalStack=0;resizeParent=1;resizeParentMax=0;resizeLast=0;collapsible=1;marginBottom=0;whiteSpace=wrap;html=1;" parent="1" vertex="1">
          <mxGeometry x="820" y="930" width="220" height="66" as="geometry" />
        </mxCell>
        <mxCell id="UU7bJiNKzi5CeXvKF5vh-58" value="+ frame: 1" style="text;strokeColor=none;fillColor=none;align=left;verticalAlign=top;spacingLeft=4;spacingRight=4;overflow=hidden;rotatable=0;points=[[0,0.5],[1,0.5]];portConstraint=eastwest;whiteSpace=wrap;html=1;" parent="UU7bJiNKzi5CeXvKF5vh-57" vertex="1">
          <mxGeometry y="40" width="220" height="26" as="geometry" />
        </mxCell>
        <mxCell id="UU7bJiNKzi5CeXvKF5vh-61" value="Fader gain dynamic glyph:&lt;div&gt;&amp;lt;API&amp;gt;Glyph&lt;/div&gt;" style="swimlane;fontStyle=1;align=center;verticalAlign=top;childLayout=stackLayout;horizontal=1;startSize=40;horizontalStack=0;resizeParent=1;resizeParentMax=0;resizeLast=0;collapsible=1;marginBottom=0;whiteSpace=wrap;html=1;" parent="1" vertex="1">
          <mxGeometry x="1540" y="930" width="220" height="66" as="geometry" />
        </mxCell>
        <mxCell id="UU7bJiNKzi5CeXvKF5vh-62" value="+ position: 450" style="text;strokeColor=none;fillColor=none;align=left;verticalAlign=top;spacingLeft=4;spacingRight=4;overflow=hidden;rotatable=0;points=[[0,0.5],[1,0.5]];portConstraint=eastwest;whiteSpace=wrap;html=1;" parent="UU7bJiNKzi5CeXvKF5vh-61" vertex="1">
          <mxGeometry y="40" width="220" height="26" as="geometry" />
        </mxCell>
        <mxCell id="UU7bJiNKzi5CeXvKF5vh-63" value="" style="endArrow=diamondThin;endFill=1;endSize=24;html=1;rounded=0;" parent="1" source="UU7bJiNKzi5CeXvKF5vh-57" target="UU7bJiNKzi5CeXvKF5vh-21" edge="1">
          <mxGeometry width="160" relative="1" as="geometry">
            <mxPoint x="475" y="752" as="sourcePoint" />
            <mxPoint x="498" y="670" as="targetPoint" />
          </mxGeometry>
        </mxCell>
        <mxCell id="UU7bJiNKzi5CeXvKF5vh-64" value="" style="endArrow=diamondThin;endFill=1;endSize=24;html=1;rounded=0;" parent="1" source="UU7bJiNKzi5CeXvKF5vh-61" target="UU7bJiNKzi5CeXvKF5vh-22" edge="1">
          <mxGeometry width="160" relative="1" as="geometry">
            <mxPoint x="671" y="950" as="sourcePoint" />
            <mxPoint x="689" y="530" as="targetPoint" />
          </mxGeometry>
        </mxCell>
        <mxCell id="UU7bJiNKzi5CeXvKF5vh-65" value="Carousel frame update policy:&lt;div&gt;PreconfiguredGlyphUpdatePolicy&lt;/div&gt;&lt;div&gt;&amp;lt;&lt;span style=&quot;background-color: initial;&quot;&gt;&amp;lt;API&amp;gt;Glyph, int&lt;/span&gt;&lt;span style=&quot;background-color: initial;&quot;&gt;&amp;gt;&lt;/span&gt;&lt;/div&gt;" style="swimlane;fontStyle=1;align=center;verticalAlign=top;childLayout=stackLayout;horizontal=1;startSize=60;horizontalStack=0;resizeParent=1;resizeParentMax=0;resizeLast=0;collapsible=1;marginBottom=0;whiteSpace=wrap;html=1;" parent="1" vertex="1">
          <mxGeometry x="970" y="590" width="300" height="130" as="geometry" />
        </mxCell>
        <mxCell id="UU7bJiNKzi5CeXvKF5vh-66" value="- onUpdate:&lt;div&gt;{&lt;/div&gt;&lt;div&gt;&amp;nbsp; glyph.SetFrame(state)&lt;/div&gt;&lt;div&gt;}&lt;/div&gt;" style="text;strokeColor=none;fillColor=none;align=left;verticalAlign=top;spacingLeft=4;spacingRight=4;overflow=hidden;rotatable=0;points=[[0,0.5],[1,0.5]];portConstraint=eastwest;whiteSpace=wrap;html=1;" parent="UU7bJiNKzi5CeXvKF5vh-65" vertex="1">
          <mxGeometry y="60" width="300" height="70" as="geometry" />
        </mxCell>
        <mxCell id="UU7bJiNKzi5CeXvKF5vh-71" value="" style="endArrow=diamondThin;endFill=0;endSize=24;html=1;rounded=0;" parent="1" source="UU7bJiNKzi5CeXvKF5vh-65" target="UU7bJiNKzi5CeXvKF5vh-21" edge="1">
          <mxGeometry width="160" relative="1" as="geometry">
            <mxPoint x="450" y="726" as="sourcePoint" />
            <mxPoint x="597" y="600" as="targetPoint" />
          </mxGeometry>
        </mxCell>
        <mxCell id="UU7bJiNKzi5CeXvKF5vh-72" value="Slider position update policy:&lt;div&gt;PreconfiguredGlyphUpdatePolicy&lt;/div&gt;&lt;div&gt;&amp;lt;&lt;span style=&quot;background-color: initial;&quot;&gt;&amp;lt;API&amp;gt;Glyph, int&lt;/span&gt;&lt;span style=&quot;background-color: initial;&quot;&gt;&amp;gt;&lt;/span&gt;&lt;/div&gt;" style="swimlane;fontStyle=1;align=center;verticalAlign=top;childLayout=stackLayout;horizontal=1;startSize=60;horizontalStack=0;resizeParent=1;resizeParentMax=0;resizeLast=0;collapsible=1;marginBottom=0;whiteSpace=wrap;html=1;" parent="1" vertex="1">
          <mxGeometry x="1310" y="760" width="300" height="130" as="geometry" />
        </mxCell>
        <mxCell id="UU7bJiNKzi5CeXvKF5vh-73" value="- onUpdate:&lt;div&gt;{&lt;/div&gt;&lt;div&gt;&amp;nbsp; glyph.SetPosition(state)&lt;/div&gt;&lt;div&gt;}&lt;/div&gt;" style="text;strokeColor=none;fillColor=none;align=left;verticalAlign=top;spacingLeft=4;spacingRight=4;overflow=hidden;rotatable=0;points=[[0,0.5],[1,0.5]];portConstraint=eastwest;whiteSpace=wrap;html=1;" parent="UU7bJiNKzi5CeXvKF5vh-72" vertex="1">
          <mxGeometry y="60" width="300" height="70" as="geometry" />
        </mxCell>
        <mxCell id="UU7bJiNKzi5CeXvKF5vh-74" value="" style="endArrow=diamondThin;endFill=0;endSize=24;html=1;rounded=0;" parent="1" source="UU7bJiNKzi5CeXvKF5vh-72" target="UU7bJiNKzi5CeXvKF5vh-22" edge="1">
          <mxGeometry width="160" relative="1" as="geometry">
            <mxPoint x="730" y="907" as="sourcePoint" />
            <mxPoint x="754" y="547" as="targetPoint" />
          </mxGeometry>
        </mxCell>
        <mxCell id="UU7bJiNKzi5CeXvKF5vh-75" value="" style="endArrow=none;html=1;edgeStyle=orthogonalEdgeStyle;rounded=0;" parent="1" target="UU7bJiNKzi5CeXvKF5vh-57" edge="1">
          <mxGeometry relative="1" as="geometry">
            <mxPoint x="540" y="1040" as="sourcePoint" />
            <mxPoint x="-30" y="1100" as="targetPoint" />
            <Array as="points">
              <mxPoint x="930" y="1040" />
            </Array>
          </mxGeometry>
        </mxCell>
        <mxCell id="UU7bJiNKzi5CeXvKF5vh-78" value="" style="endArrow=none;html=1;edgeStyle=orthogonalEdgeStyle;rounded=0;" parent="1" target="UU7bJiNKzi5CeXvKF5vh-61" edge="1">
          <mxGeometry relative="1" as="geometry">
            <mxPoint x="540" y="1040" as="sourcePoint" />
            <mxPoint x="40" y="988" as="targetPoint" />
            <Array as="points">
              <mxPoint x="1650" y="1040" />
            </Array>
          </mxGeometry>
        </mxCell>
        <mxCell id="eRcSue_xo4_uQA-qtnX5-1" value="A1 checkbox state promotion policy:&lt;div&gt;StateControl&amp;lt;int, &amp;lt;API&amp;gt;Glyph&amp;gt;&lt;/div&gt;" style="swimlane;fontStyle=1;align=center;verticalAlign=top;childLayout=stackLayout;horizontal=1;startSize=40;horizontalStack=0;resizeParent=1;resizeParentMax=0;resizeLast=0;collapsible=1;marginBottom=0;whiteSpace=wrap;html=1;" parent="1" vertex="1">
          <mxGeometry x="500" y="450" width="300" height="110" as="geometry" />
        </mxCell>
        <mxCell id="eRcSue_xo4_uQA-qtnX5-2" value="- onPromote:&lt;div&gt;{&lt;/div&gt;&lt;div&gt;&amp;nbsp; audioSystem.UpdateA1(state)&lt;/div&gt;&lt;div&gt;}&lt;/div&gt;" style="text;strokeColor=none;fillColor=none;align=left;verticalAlign=top;spacingLeft=4;spacingRight=4;overflow=hidden;rotatable=0;points=[[0,0.5],[1,0.5]];portConstraint=eastwest;whiteSpace=wrap;html=1;" parent="eRcSue_xo4_uQA-qtnX5-1" vertex="1">
          <mxGeometry y="40" width="300" height="70" as="geometry" />
        </mxCell>
        <mxCell id="eRcSue_xo4_uQA-qtnX5-3" value="System fader gain state promotion policy:&lt;div&gt;StateControl&amp;lt;int, &amp;lt;API&amp;gt;Glyph&amp;gt;&lt;/div&gt;" style="swimlane;fontStyle=1;align=center;verticalAlign=top;childLayout=stackLayout;horizontal=1;startSize=40;horizontalStack=0;resizeParent=1;resizeParentMax=0;resizeLast=0;collapsible=1;marginBottom=0;whiteSpace=wrap;html=1;" parent="1" vertex="1">
          <mxGeometry x="1690" y="590" width="300" height="110" as="geometry" />
        </mxCell>
        <mxCell id="eRcSue_xo4_uQA-qtnX5-4" value="- onPromote:&lt;div&gt;{&lt;/div&gt;&lt;div&gt;&amp;nbsp; audioSystem.UpdateSystemFaderGain(state)&lt;/div&gt;&lt;div&gt;}&lt;/div&gt;" style="text;strokeColor=none;fillColor=none;align=left;verticalAlign=top;spacingLeft=4;spacingRight=4;overflow=hidden;rotatable=0;points=[[0,0.5],[1,0.5]];portConstraint=eastwest;whiteSpace=wrap;html=1;" parent="eRcSue_xo4_uQA-qtnX5-3" vertex="1">
          <mxGeometry y="40" width="300" height="70" as="geometry" />
        </mxCell>
        <mxCell id="eRcSue_xo4_uQA-qtnX5-5" value="" style="endArrow=diamondThin;endFill=1;endSize=24;html=1;rounded=0;" parent="1" source="eRcSue_xo4_uQA-qtnX5-1" target="UU7bJiNKzi5CeXvKF5vh-21" edge="1">
          <mxGeometry width="160" relative="1" as="geometry">
            <mxPoint x="940" y="940" as="sourcePoint" />
            <mxPoint x="940" y="420" as="targetPoint" />
          </mxGeometry>
        </mxCell>
        <mxCell id="eRcSue_xo4_uQA-qtnX5-6" value="" style="endArrow=diamondThin;endFill=1;endSize=24;html=1;rounded=0;" parent="1" source="eRcSue_xo4_uQA-qtnX5-3" target="UU7bJiNKzi5CeXvKF5vh-22" edge="1">
          <mxGeometry width="160" relative="1" as="geometry">
            <mxPoint x="1790" y="1050" as="sourcePoint" />
            <mxPoint x="1790" y="530" as="targetPoint" />
          </mxGeometry>
        </mxCell>
      </root>
    </mxGraphModel>
  </diagram>
</mxfile>
